<svg width="911" height="455" viewBox="0 0 911 455" class="keymap" xmlns="http://www.w3.org/2000/svg" xmlns:xlink="http://www.w3.org/1999/xlink">
<defs>/* start glyphs */
<svg id="mdi:apple-keyboard-command">
<svg xmlns="http://www.w3.org/2000/svg" id="mdi-apple-keyboard-command" viewBox="0 0 24 24"><path d="M6,2A4,4 0 0,1 10,6V8H14V6A4,4 0 0,1 18,2A4,4 0 0,1 22,6A4,4 0 0,1 18,10H16V14H18A4,4 0 0,1 22,18A4,4 0 0,1 18,22A4,4 0 0,1 14,18V16H10V18A4,4 0 0,1 6,22A4,4 0 0,1 2,18A4,4 0 0,1 6,14H8V10H6A4,4 0 0,1 2,6A4,4 0 0,1 6,2M16,18A2,2 0 0,0 18,20A2,2 0 0,0 20,18A2,2 0 0,0 18,16H16V18M14,10H10V14H14V10M6,16A2,2 0 0,0 4,18A2,2 0 0,0 6,20A2,2 0 0,0 8,18V16H6M8,6A2,2 0 0,0 6,4A2,2 0 0,0 4,6A2,2 0 0,0 6,8H8V6M18,8A2,2 0 0,0 20,6A2,2 0 0,0 18,4A2,2 0 0,0 16,6V8H18Z" /></svg>
</svg>
<svg id="mdi:apple-keyboard-control">
<svg xmlns="http://www.w3.org/2000/svg" id="mdi-apple-keyboard-control" viewBox="0 0 24 24"><path d="M19.78,11.78L18.36,13.19L12,6.83L5.64,13.19L4.22,11.78L12,4L19.78,11.78Z" /></svg>
</svg>
<svg id="mdi:apple-keyboard-option">
<svg xmlns="http://www.w3.org/2000/svg" id="mdi-apple-keyboard-option" viewBox="0 0 24 24"><path d="M3,4H9.11L16.15,18H21V20H14.88L7.84,6H3V4M14,4H21V6H14V4Z" /></svg>
</svg>
<svg id="mdi:apple-keyboard-shift">
<svg xmlns="http://www.w3.org/2000/svg" id="mdi-apple-keyboard-shift" viewBox="0 0 24 24"><path d="M15,18V12H17.17L12,6.83L6.83,12H9V18H15M12,4L22,14H17V20H7V14H2L12,4Z" /></svg>
</svg>
<svg id="mdi:backspace">
<svg xmlns="http://www.w3.org/2000/svg" id="mdi-backspace" viewBox="0 0 24 24"><path d="M22,3H7C6.31,3 5.77,3.35 5.41,3.88L0,12L5.41,20.11C5.77,20.64 6.31,21 7,21H22A2,2 0 0,0 24,19V5A2,2 0 0,0 22,3M19,15.59L17.59,17L14,13.41L10.41,17L9,15.59L12.59,12L9,8.41L10.41,7L14,10.59L17.59,7L19,8.41L15.41,12" /></svg>
</svg>
<svg id="mdi:backspace-reverse-outline">
<svg xmlns="http://www.w3.org/2000/svg" id="mdi-backspace-reverse-outline" viewBox="0 0 24 24"><path d="M5,15.59L6.41,17L10,13.41L13.59,17L15,15.59L11.41,12L15,8.41L13.59,7L10,10.59L6.41,7L5,8.41L8.59,12L5,15.59M2,3A2,2 0 0,0 0,5V19A2,2 0 0,0 2,21H17C17.69,21 18.23,20.64 18.59,20.11L24,12L18.59,3.88C18.23,3.35 17.69,3 17,3H2M2,5H17L21.72,12L17,19H2V5Z" /></svg>
</svg>
<svg id="mdi:keyboard-esc">
<svg xmlns="http://www.w3.org/2000/svg" id="mdi-keyboard-esc" viewBox="0 0 24 24"><path d="M1 7H7V9H3V11H7V13H3V15H7V17H1V7M11 7H15V9H11V11H13C14.11 11 15 11.9 15 13V15C15 16.11 14.11 17 13 17H9V15H13V13H11C9.9 13 9 12.11 9 11V9C9 7.9 9.9 7 11 7M19 7H21C22.11 7 23 7.9 23 9V10H21V9H19V15H21V14H23V15C23 16.11 22.11 17 21 17H19C17.9 17 17 16.11 17 15V9C17 7.9 17.9 7 19 7Z" /></svg>
</svg>
<svg id="mdi:keyboard-return">
<svg xmlns="http://www.w3.org/2000/svg" id="mdi-keyboard-return" viewBox="0 0 24 24"><path d="M19,7V11H5.83L9.41,7.41L8,6L2,12L8,18L9.41,16.58L5.83,13H21V7H19Z" /></svg>
</svg>
<svg id="mdi:keyboard-space">
<svg xmlns="http://www.w3.org/2000/svg" id="mdi-keyboard-space" viewBox="0 0 24 24"><path d="M3 15H5V19H19V15H21V19C21 20.1 20.1 21 19 21H5C3.9 21 3 20.1 3 19V15Z" /></svg>
</svg>
</defs>/* end glyphs */
<style>/* force mdi glyph defs to inherit color from glyph references */
svg path {
    fill: inherit;
}

defs svg {
    overflow: visible;
}

defs svg path {
    fill: currentColor;
}

svg.keymap {
    font-family: REM, "SFMono-Regular", Consolas, "Liberation Mono", Menlo, monospace;
    font-size: 14px;
    font-kerning: normal;
    text-rendering: optimizeLegibility;
    fill: rgb(38, 50, 56);
}

rect.key {
    fill: rgb(236, 239, 241);
}

rect.key, rect.combo {
    stroke: white;
    stroke-width: 1;
}

.keypos-32 rect.key,
.keypos-33 rect.key,
.keypos-34 rect.key,
.keypos-35 rect.key,
.keypos-36 rect.key,
.keypos-37 rect.key {
    fill: rgb(207, 216, 220);
    stroke: rgb(176, 190, 197);
}

rect.side {
    filter: brightness(90%);
}

rect.combo, rect.combo-separate {
    fill: rgb(207, 216, 220);
}

rect.held, rect.combo.held {
    fill: rgb(229, 115, 115);
}

rect.ghost, rect.combo.ghost {
    stroke-dasharray: 4, 4;
    stroke-width: 2;
}

text {
    text-anchor: middle;
    dominant-baseline: middle;
}

text.label {
    font-weight: bold;
    text-anchor: start;
    fill: rgb(120, 144, 156);
    stroke: white;
    stroke-width: 4;
    paint-order: stroke;
}

text.footer {
    text-anchor: end;
    dominant-baseline: auto;
    stroke: white;
    stroke-width: 4;
    paint-order: stroke;
}

text.combo, text.hold, text.shifted, text.left, text.right, text.tl, text.tr, text.bl, text.br {
    font-size: 11px;
}

text.hold, text.shifted, text.left, text.right, text.tl, text.tr, text.bl, text.br {
    fill: rgb(96, 125, 139);
}

text.hold, text.bl, text.br {
    text-anchor: middle;
    dominant-baseline: auto;
}

text.shifted, text.tl, text.tr {
    text-anchor: middle;
    dominant-baseline: hanging;
}

text.left, text.tl, text.bl {
    text-anchor: start;
}

text.right, text.tr, text.br {
    text-anchor: end;
}

text.layer-activator {
    text-decoration: underline;
    fill: rgb(38, 50, 56);
}

text.combo.hold, text.combo.shifted, text.combo.left, text.combo.right {
    font-size: 8px;
}

text.combo.tap {
    fill: rgb(55, 71, 79);
}

use.glyph {
    fill: rgb(38, 50, 56);
    color: rgb(38, 50, 56);
}

use.left.glyph,
use.right.glyph,
use.tl.glyph,
use.bl.glyph,
use.br.glyph {
    fill: rgb(96, 125, 139);
    color: rgb(96, 125, 139);
}

use.combo.glyph {
    fill: rgb(55, 71, 79);
    color: rgb(55, 71, 79);
}

text.combo.hold, text.combo.left, text.combo.right {
    fill: rgb(55, 71, 79);
}

text.combo.shifted {
    fill: rgb(120, 144, 156);
}

text.trans {
    fill: rgb(120, 144, 156);
    opacity: 0.4;
}

path.combo {
    stroke-width: 1;
    stroke: rgb(207, 216, 220);
    fill: none;
}

.icon-tabler > path {
    fill: inherit;
    stroke: inherit;
    stroke-width: 2;
}

.icon-tabler > path[stroke="none"][fill="none"] {
    visibility: hidden;
}

svg.keymap { fill: rgb(38, 50, 56); }
rect.key { fill: rgb(236, 239, 241); }
rect.key, rect.combo { stroke: white; }
rect.combo, rect.combo-separate { fill: rgb(207, 216, 220); stroke: rgb(207, 216, 220); }
rect.held, rect.combo.held { fill: rgb(229, 115, 115); }
text.label, text.footer { stroke: white; }
text.trans { fill: rgb(120, 144, 156); opacity: 0.4; }
path.combo { stroke: rgb(207, 216, 220); }
</style>
<g transform="translate(30, 0)" class="layer-Base">
<g transform="translate(0, 90)">
<g transform="translate(78, 113) rotate(-10.0)" class="key keypos-0">
<rect rx="6" ry="6" x="-28" y="-26" width="55" height="52" class="key"/>
<text x="0" y="0" class="key tap">Q</text>
</g>
<g transform="translate(144, 62) rotate(-4.0)" class="key keypos-1">
<rect rx="6" ry="6" x="-28" y="-26" width="55" height="52" class="key"/>
<text x="0" y="0" class="key tap">W</text>
</g>
<g transform="translate(212, 28)" class="key keypos-2">
<rect rx="6" ry="6" x="-28" y="-26" width="55" height="52" class="key"/>
<text x="0" y="0" class="key tap">E</text>
</g>
<g transform="translate(271, 56)" class="key keypos-3">
<rect rx="6" ry="6" x="-28" y="-26" width="55" height="52" class="key"/>
<text x="0" y="0" class="key tap">R</text>
</g>
<g transform="translate(330, 65)" class="key keypos-4">
<rect rx="6" ry="6" x="-28" y="-26" width="55" height="52" class="key"/>
<text x="0" y="0" class="key tap">T</text>
</g>
<g transform="translate(520, 65)" class="key keypos-5">
<rect rx="6" ry="6" x="-28" y="-26" width="55" height="52" class="key"/>
<text x="0" y="0" class="key tap">Y</text>
</g>
<g transform="translate(580, 56)" class="key keypos-6">
<rect rx="6" ry="6" x="-28" y="-26" width="55" height="52" class="key"/>
<text x="0" y="0" class="key tap">U</text>
</g>
<g transform="translate(639, 28)" class="key keypos-7">
<rect rx="6" ry="6" x="-28" y="-26" width="55" height="52" class="key"/>
<text x="0" y="0" class="key tap">I</text>
</g>
<g transform="translate(706, 62) rotate(4.0)" class="key keypos-8">
<rect rx="6" ry="6" x="-28" y="-26" width="55" height="52" class="key"/>
<text x="0" y="0" class="key tap">O</text>
</g>
<g transform="translate(773, 113) rotate(10.0)" class="key keypos-9">
<rect rx="6" ry="6" x="-28" y="-26" width="55" height="52" class="key"/>
<text x="0" y="0" class="key tap">P</text>
</g>
<g transform="translate(87, 168) rotate(-10.0)" class="key keypos-10">
<rect rx="6" ry="6" x="-28" y="-26" width="55" height="52" class="key"/>
<text x="0" y="0" class="key tap">A</text>
<use href="#mdi:apple-keyboard-option" xlink:href="#mdi:apple-keyboard-option" x="-26" y="14" height="10" width="10.0" class="key bl glyph mdi:apple-keyboard-option"/>
</g>
<g transform="translate(148, 118) rotate(-4.0)" class="key keypos-11">
<rect rx="6" ry="6" x="-28" y="-26" width="55" height="52" class="key"/>
<text x="0" y="0" class="key tap">S</text>
<use href="#mdi:apple-keyboard-control" xlink:href="#mdi:apple-keyboard-control" x="-26" y="14" height="10" width="10.0" class="key bl glyph mdi:apple-keyboard-control"/>
</g>
<g transform="translate(212, 84)" class="key keypos-12">
<rect rx="6" ry="6" x="-28" y="-26" width="55" height="52" class="key"/>
<text x="0" y="0" class="key tap">D</text>
<use href="#mdi:apple-keyboard-command" xlink:href="#mdi:apple-keyboard-command" x="-26" y="-24" height="10" width="10.0" class="key tl glyph mdi:apple-keyboard-command"/>
</g>
<g transform="translate(271, 112)" class="key keypos-13">
<rect rx="6" ry="6" x="-28" y="-26" width="55" height="52" class="key"/>
<text x="0" y="0" class="key tap">F</text>
<use href="#mdi:apple-keyboard-shift" xlink:href="#mdi:apple-keyboard-shift" x="-26" y="14" height="10" width="10.0" class="key bl glyph mdi:apple-keyboard-shift"/>
</g>
<g transform="translate(330, 121)" class="key keypos-14">
<rect rx="6" ry="6" x="-28" y="-26" width="55" height="52" class="key"/>
<text x="0" y="0" class="key tap">G</text>
</g>
<g transform="translate(520, 121)" class="key keypos-15">
<rect rx="6" ry="6" x="-28" y="-26" width="55" height="52" class="key"/>
<text x="0" y="0" class="key tap">H</text>
</g>
<g transform="translate(580, 112)" class="key keypos-16">
<rect rx="6" ry="6" x="-28" y="-26" width="55" height="52" class="key"/>
<text x="0" y="0" class="key tap">J</text>
<use href="#mdi:apple-keyboard-shift" xlink:href="#mdi:apple-keyboard-shift" x="16" y="14" height="10" width="10.0" class="key br glyph mdi:apple-keyboard-shift"/>
</g>
<g transform="translate(639, 84)" class="key keypos-17">
<rect rx="6" ry="6" x="-28" y="-26" width="55" height="52" class="key"/>
<text x="0" y="0" class="key tap">K</text>
<use href="#mdi:apple-keyboard-command" xlink:href="#mdi:apple-keyboard-command" x="-26" y="-24" height="10" width="10.0" class="key tl glyph mdi:apple-keyboard-command"/>
</g>
<g transform="translate(703, 118) rotate(4.0)" class="key keypos-18">
<rect rx="6" ry="6" x="-28" y="-26" width="55" height="52" class="key"/>
<text x="0" y="0" class="key tap">L</text>
<use href="#mdi:apple-keyboard-control" xlink:href="#mdi:apple-keyboard-control" x="16" y="14" height="10" width="10.0" class="key br glyph mdi:apple-keyboard-control"/>
</g>
<g transform="translate(764, 168) rotate(10.0)" class="key keypos-19">
<rect rx="6" ry="6" x="-28" y="-26" width="55" height="52" class="key"/>
<text x="0" y="0" class="key tap">&#x27;</text>
<use href="#mdi:apple-keyboard-option" xlink:href="#mdi:apple-keyboard-option" x="16" y="14" height="10" width="10.0" class="key br glyph mdi:apple-keyboard-option"/>
</g>
<g transform="translate(34, 209) rotate(-10.0)" class="key keypos-20">
<rect rx="6" ry="6" x="-28" y="-26" width="55" height="52" class="key"/>
</g>
<g transform="translate(97, 223) rotate(-10.0)" class="key keypos-21">
<rect rx="6" ry="6" x="-28" y="-26" width="55" height="52" class="key"/>
<text x="0" y="0" class="key tap">Z</text>
</g>
<g transform="translate(152, 174) rotate(-4.0)" class="key keypos-22">
<rect rx="6" ry="6" x="-28" y="-26" width="55" height="52" class="key"/>
<text x="0" y="0" class="key tap">X</text>
</g>
<g transform="translate(212, 140)" class="key keypos-23">
<rect rx="6" ry="6" x="-28" y="-26" width="55" height="52" class="key"/>
<text x="0" y="0" class="key tap">C</text>
</g>
<g transform="translate(271, 168)" class="key keypos-24">
<rect rx="6" ry="6" x="-28" y="-26" width="55" height="52" class="key"/>
<text x="0" y="0" class="key tap">V</text>
</g>
<g transform="translate(330, 177)" class="key keypos-25">
<rect rx="6" ry="6" x="-28" y="-26" width="55" height="52" class="key"/>
<text x="0" y="0" class="key tap">B</text>
</g>
<g transform="translate(520, 177)" class="key keypos-26">
<rect rx="6" ry="6" x="-28" y="-26" width="55" height="52" class="key"/>
<text x="0" y="0" class="key tap">N</text>
</g>
<g transform="translate(580, 168)" class="key keypos-27">
<rect rx="6" ry="6" x="-28" y="-26" width="55" height="52" class="key"/>
<text x="0" y="0" class="key tap">M</text>
</g>
<g transform="translate(639, 140)" class="key keypos-28">
<rect rx="6" ry="6" x="-28" y="-26" width="55" height="52" class="key"/>
<text x="0" y="0" class="key tap">,</text>
<text x="0" y="-24" class="key shifted">;</text>
</g>
<g transform="translate(699, 174) rotate(4.0)" class="key keypos-29">
<rect rx="6" ry="6" x="-28" y="-26" width="55" height="52" class="key"/>
<text x="0" y="0" class="key tap">.</text>
<text x="0" y="-24" class="key shifted">:</text>
</g>
<g transform="translate(754, 223) rotate(10.0)" class="key keypos-30">
<rect rx="6" ry="6" x="-28" y="-26" width="55" height="52" class="key"/>
<text x="0" y="0" class="key tap">?</text>
<text x="0" y="-24" class="key shifted">!</text>
</g>
<g transform="translate(817, 209) rotate(10.0)" class="key keypos-31">
<rect rx="6" ry="6" x="-28" y="-26" width="55" height="52" class="key"/>
</g>
<g transform="translate(255, 236)" class="key keypos-32">
<rect rx="6" ry="6" x="-28" y="-26" width="55" height="52" class="key"/>
</g>
<g transform="translate(320, 245) rotate(15.0)" class="key keypos-33">
<rect rx="6" ry="6" x="-28" y="-26" width="55" height="52" class="key"/>
<use href="#mdi:keyboard-space" xlink:href="#mdi:keyboard-space" x="-7" y="-7" height="14" width="14.0" class="key tap glyph mdi:keyboard-space"/>
<text x="0" y="24" class="key hold">Nav</text>
<text x="0" y="-24" class="key shifted"><tspan style="font-size: 88%">Sentence</tspan></text>
</g>
<g transform="translate(381, 270) rotate(30.0)" class="key keypos-34">
<rect rx="6" ry="6" x="-28" y="-26" width="55" height="52" class="key"/>
<use href="#mdi:keyboard-return" xlink:href="#mdi:keyboard-return" x="-7" y="-7" height="14" width="14.0" class="key tap glyph mdi:keyboard-return"/>
<text x="0" y="24" class="key hold">Fn</text>
</g>
<g transform="translate(470, 270) rotate(-30.0)" class="key keypos-35">
<rect rx="6" ry="6" x="-28" y="-26" width="55" height="52" class="key"/>
<text x="0" y="0" class="key tap">Numword</text>
<text x="0" y="24" class="key hold">Num</text>
<text x="0" y="-24" class="key shifted"><tspan style="font-size: 70%">Sticky Num</tspan></text>
</g>
<g transform="translate(531, 245) rotate(-15.0)" class="key keypos-36">
<rect rx="6" ry="6" x="-28" y="-26" width="55" height="52" class="key"/>
<text x="0" y="0" class="key tap">Magic</text>
<text x="0" y="24" class="key hold">Shift</text>
</g>
<g transform="translate(596, 236)" class="key keypos-37">
<rect rx="6" ry="6" x="-28" y="-26" width="55" height="52" class="key"/>
</g>
<g class="combo combopos-0">
<rect rx="6" ry="6" x="164" y="32" width="28" height="26" class="combo"/>
<use href="#mdi:keyboard-esc" xlink:href="#mdi:keyboard-esc" x="171" y="38" height="14" width="14.0" class="combo tap glyph mdi:keyboard-esc"/>
</g>
<g class="combo combopos-1">
<rect rx="6" ry="6" x="228" y="29" width="28" height="26" class="combo"/>
<text x="242" y="42" class="combo tap">
<tspan x="242" dy="-0.6em">Smart</tspan><tspan x="242" dy="1.2em">Mouse</tspan>
</text>
</g>
<g class="combo combopos-2">
<rect rx="6" ry="6" x="166" y="88" width="28" height="26" class="combo"/>
<text x="180" y="101" class="combo tap">Tab</text>
</g>
<g class="combo combopos-3">
<rect rx="6" ry="6" x="228" y="85" width="28" height="26" class="combo"/>
<text x="242" y="98" class="combo tap">Leader</text>
</g>
<g class="combo combopos-4">
<path d="M210,-21 h-56 a6.0,6.0 0 0 0 -6.0,6.0 v114" class="combo"/>
<path d="M210,-21 l1,86" class="combo"/>
<path d="M210,-21 h55 a6.0,6.0 0 0 1 6.0,6.0 v108" class="combo"/>
<rect rx="6" ry="6" x="196" y="-34" width="28" height="26" class="combo"/>
<text x="210" y="-21" class="combo tap">
<tspan x="210" dy="-0.6em">Shift+</tspan><tspan x="210" dy="1.2em">Leader</tspan>
</text>
</g>
<g class="combo combopos-5">
<path d="M212,211 h-54 a6.0,6.0 0 0 1 -6.0,-6.0 v-13" class="combo"/>
<path d="M212,211 h54 a6.0,6.0 0 0 0 6.0,-6.0 v-19" class="combo"/>
<rect rx="6" ry="6" x="198" y="198" width="28" height="26" class="combo"/>
<text x="212" y="211" class="combo tap">Cut</text>
</g>
<g class="combo combopos-6">
<rect rx="6" ry="6" x="168" y="144" width="28" height="26" class="combo"/>
<text x="182" y="157" class="combo tap">Copy</text>
</g>
<g class="combo combopos-7">
<rect rx="6" ry="6" x="228" y="141" width="28" height="26" class="combo"/>
<text x="242" y="154" class="combo tap">Paste</text>
</g>
<g class="combo backspace combopos-8">
<rect rx="6" ry="6" x="595" y="29" width="28" height="26" class="combo backspace"/>
<use href="#mdi:backspace" xlink:href="#mdi:backspace" x="602" y="35" height="14" width="14.0" class="combo backspace tap glyph mdi:backspace"/>
</g>
<g class="combo combopos-9">
<rect rx="6" ry="6" x="659" y="32" width="28" height="26" class="combo"/>
<use href="#mdi:backspace-reverse-outline" xlink:href="#mdi:backspace-reverse-outline" x="666" y="38" height="14" width="14.0" class="combo tap glyph mdi:backspace-reverse-outline"/>
</g>
<g class="combo combopos-10">
<rect rx="6" ry="6" x="595" y="85" width="28" height="26" class="combo"/>
<text x="609" y="98" class="combo tap">(</text>
<text x="621" y="98" class="combo right">&lt;</text>
</g>
<g class="combo combopos-11">
<rect rx="6" ry="6" x="657" y="88" width="28" height="26" class="combo"/>
<text x="671" y="101" class="combo tap">)</text>
<text x="683" y="101" class="combo right">&gt;</text>
</g>
<g class="combo combopos-12">
<rect rx="6" ry="6" x="595" y="141" width="28" height="26" class="combo"/>
<text x="609" y="154" class="combo tap">[</text>
<text x="621" y="154" class="combo right">{</text>
</g>
<g class="combo combopos-13">
<rect rx="6" ry="6" x="655" y="144" width="28" height="26" class="combo"/>
<text x="669" y="157" class="combo tap">]</text>
<text x="681" y="157" class="combo right">}</text>
</g>
<g class="combo combopos-14">
<rect rx="6" ry="6" x="132" y="77" width="28" height="26" class="combo"/>
<text x="146" y="90" class="combo tap">@</text>
</g>
<g class="combo combopos-15">
<rect rx="6" ry="6" x="198" y="43" width="28" height="26" class="combo"/>
<text x="212" y="56" class="combo tap">#</text>
</g>
<g class="combo combopos-16">
<rect rx="6" ry="6" x="257" y="71" width="28" height="26" class="combo"/>
<text x="271" y="84" class="combo tap">$</text>
</g>
<g class="combo combopos-17">
<rect rx="6" ry="6" x="316" y="80" width="28" height="26" class="combo"/>
<text x="330" y="93" class="combo tap">%</text>
</g>
<g class="combo combopos-18">
<rect rx="6" ry="6" x="136" y="133" width="28" height="26" class="combo"/>
<text x="150" y="146" class="combo tap">`</text>
</g>
<g class="combo combopos-19">
<rect rx="6" ry="6" x="198" y="99" width="28" height="26" class="combo"/>
<text x="212" y="112" class="combo tap">\</text>
</g>
<g class="combo combopos-20">
<rect rx="6" ry="6" x="257" y="127" width="28" height="26" class="combo"/>
<text x="271" y="140" class="combo tap">=</text>
</g>
<g class="combo combopos-21">
<rect rx="6" ry="6" x="316" y="136" width="28" height="26" class="combo"/>
<text x="330" y="149" class="combo tap">~</text>
</g>
<g class="combo combopos-22">
<rect rx="6" ry="6" x="506" y="80" width="28" height="26" class="combo"/>
<text x="520" y="93" class="combo tap">^</text>
</g>
<g class="combo combopos-23">
<rect rx="6" ry="6" x="566" y="71" width="28" height="26" class="combo"/>
<text x="580" y="84" class="combo tap">+</text>
</g>
<g class="combo combopos-24">
<rect rx="6" ry="6" x="625" y="43" width="28" height="26" class="combo"/>
<text x="639" y="56" class="combo tap">*</text>
</g>
<g class="combo combopos-25">
<rect rx="6" ry="6" x="690" y="77" width="28" height="26" class="combo"/>
<text x="704" y="90" class="combo tap">&amp;</text>
</g>
<g class="combo combopos-26">
<rect rx="6" ry="6" x="506" y="136" width="28" height="26" class="combo"/>
<text x="520" y="149" class="combo tap">_</text>
</g>
<g class="combo combopos-27">
<rect rx="6" ry="6" x="566" y="127" width="28" height="26" class="combo"/>
<text x="580" y="140" class="combo tap">-</text>
</g>
<g class="combo combopos-28">
<rect rx="6" ry="6" x="625" y="99" width="28" height="26" class="combo"/>
<text x="639" y="112" class="combo tap">/</text>
</g>
<g class="combo combopos-29">
<rect rx="6" ry="6" x="687" y="133" width="28" height="26" class="combo"/>
<text x="701" y="146" class="combo tap">|</text>
</g>
</g>
</g>
</svg>
