<svg width="911" height="422" viewBox="0 0 911 422" class="keymap" xmlns="http://www.w3.org/2000/svg" xmlns:xlink="http://www.w3.org/1999/xlink">
<defs>/* start glyphs */
<svg id="mdi:apple-keyboard-command">
<svg xmlns="http://www.w3.org/2000/svg" id="mdi-apple-keyboard-command" viewBox="0 0 24 24"><path d="M6,2A4,4 0 0,1 10,6V8H14V6A4,4 0 0,1 18,2A4,4 0 0,1 22,6A4,4 0 0,1 18,10H16V14H18A4,4 0 0,1 22,18A4,4 0 0,1 18,22A4,4 0 0,1 14,18V16H10V18A4,4 0 0,1 6,22A4,4 0 0,1 2,18A4,4 0 0,1 6,14H8V10H6A4,4 0 0,1 2,6A4,4 0 0,1 6,2M16,18A2,2 0 0,0 18,20A2,2 0 0,0 20,18A2,2 0 0,0 18,16H16V18M14,10H10V14H14V10M6,16A2,2 0 0,0 4,18A2,2 0 0,0 6,20A2,2 0 0,0 8,18V16H6M8,6A2,2 0 0,0 6,4A2,2 0 0,0 4,6A2,2 0 0,0 6,8H8V6M18,8A2,2 0 0,0 20,6A2,2 0 0,0 18,4A2,2 0 0,0 16,6V8H18Z" /></svg>
</svg>
<svg id="mdi:apple-keyboard-control">
<svg xmlns="http://www.w3.org/2000/svg" id="mdi-apple-keyboard-control" viewBox="0 0 24 24"><path d="M19.78,11.78L18.36,13.19L12,6.83L5.64,13.19L4.22,11.78L12,4L19.78,11.78Z" /></svg>
</svg>
<svg id="mdi:apple-keyboard-option">
<svg xmlns="http://www.w3.org/2000/svg" id="mdi-apple-keyboard-option" viewBox="0 0 24 24"><path d="M3,4H9.11L16.15,18H21V20H14.88L7.84,6H3V4M14,4H21V6H14V4Z" /></svg>
</svg>
<svg id="mdi:apple-keyboard-shift">
<svg xmlns="http://www.w3.org/2000/svg" id="mdi-apple-keyboard-shift" viewBox="0 0 24 24"><path d="M15,18V12H17.17L12,6.83L6.83,12H9V18H15M12,4L22,14H17V20H7V14H2L12,4Z" /></svg>
</svg>
</defs>/* end glyphs */
<style>/* force mdi glyph defs to inherit color from glyph references */
svg path {
    fill: inherit;
}

defs svg {
    overflow: visible;
}

defs svg path {
    fill: currentColor;
}

svg.keymap {
    font-family: REM, "SFMono-Regular", Consolas, "Liberation Mono", Menlo, monospace;
    font-size: 14px;
    font-kerning: normal;
    text-rendering: optimizeLegibility;
    fill: rgb(38, 50, 56);
}

rect.key {
    fill: rgb(236, 239, 241);
}

rect.key, rect.combo {
    stroke: white;
    stroke-width: 1;
}

.keypos-10 rect.key,
.keypos-19 rect.key,
.keypos-30 rect.key,
.keypos-37 rect.key {
    fill: rgb(207, 216, 220);
}

.keypos-10 rect.key,
.keypos-19 rect.key {
    stroke: rgb(236, 239, 241);
}

.keypos-12 rect.key,
.keypos-16 rect.key,
.keypos-31 rect.key,
.keypos-36 rect.key {
    fill: rgb(229, 115, 115);
    stroke: rgb(239, 154, 154);
}

.keypos-11 rect.key,
.keypos-18 rect.key,
.keypos-32 rect.key,
.keypos-35 rect.key {
    fill: rgb(128, 203, 196);
    stroke: rgb(178, 223, 219);
}

.keypos-30 text,
.keypos-31 text,
.keypos-32 text,
.keypos-35 text,
.keypos-36 text,
.keypos-37 text {
    fill: rgb(38, 50, 56);
}

rect.side {
    filter: brightness(90%);
}

rect.combo, rect.combo-separate {
    fill: rgb(207, 216, 220);
}

rect.held, rect.combo.held {
    fill: rgb(229, 115, 115);
}

rect.ghost, rect.combo.ghost {
    stroke-dasharray: 4, 4;
    stroke-width: 2;
}

text {
    text-anchor: middle;
    dominant-baseline: middle;
}

text.label {
    font-weight: bold;
    text-anchor: start;
    fill: rgb(120, 144, 156);
    stroke: white;
    stroke-width: 4;
    paint-order: stroke;
}

text.footer {
    text-anchor: end;
    dominant-baseline: auto;
    stroke: white;
    stroke-width: 4;
    paint-order: stroke;
}

text.combo, text.hold, text.shifted, text.left, text.right, text.tl, text.tr, text.bl, text.br {
    font-size: 11px;
}

text.hold, text.shifted, text.left, text.right, text.tl, text.tr, text.bl, text.br {
    fill: rgb(96, 125, 139);
}

text.hold, text.bl, text.br {
    text-anchor: middle;
    dominant-baseline: auto;
}

text.shifted, text.tl, text.tr {
    text-anchor: middle;
    dominant-baseline: hanging;
}

text.left, text.tl, text.bl {
    text-anchor: start;
}

text.right, text.tr, text.br {
    text-anchor: end;
}

text.layer-activator {
    text-decoration: underline;
    fill: rgb(38, 50, 56);
}

text.combo.hold, text.combo.shifted, text.combo.left, text.combo.right {
    font-size: 8px;
}

text.combo.tap {
    fill: rgb(55, 71, 79);
}

use.glyph {
    fill: rgb(38, 50, 56);
    color: rgb(38, 50, 56);
}

use.combo.glyph {
    fill: rgb(55, 71, 79);
    color: rgb(55, 71, 79);
}

text.combo.hold, text.combo.left, text.combo.right {
    fill: rgb(55, 71, 79);
}

text.combo.shifted {
    fill: rgb(120, 144, 156);
}

text.trans {
    fill: rgb(120, 144, 156);
    opacity: 0.4;
}

path.combo {
    stroke-width: 1;
    stroke: rgb(207, 216, 220);
    fill: none;
}

.icon-tabler > path {
    fill: inherit;
    stroke: inherit;
    stroke-width: 2;
}

.icon-tabler > path[stroke="none"][fill="none"] {
    visibility: hidden;
}

svg.keymap { fill: rgb(38, 50, 56); }
rect.key { fill: rgb(236, 239, 241); }
rect.key, rect.combo { stroke: white; }
rect.combo, rect.combo-separate { fill: rgb(207, 216, 220); stroke: rgb(207, 216, 220); }
rect.held, rect.combo.held { fill: rgb(229, 115, 115); }
text.label, text.footer { stroke: white; }
text.trans { fill: rgb(120, 144, 156); opacity: 0.4; }
path.combo { stroke: rgb(207, 216, 220); }
</style>
<g transform="translate(30, 0)" class="layer-Num">
<g transform="translate(0, 56)">
<g transform="translate(78, 113) rotate(-10.0)" class="key trans keypos-0">
<rect rx="6" ry="6" x="-28" y="-26" width="55" height="52" class="key trans"/>
</g>
<g transform="translate(144, 62) rotate(-4.0)" class="key keypos-1">
<rect rx="6" ry="6" x="-28" y="-26" width="55" height="52" class="key"/>
<text x="0" y="0" class="key tap">7</text>
</g>
<g transform="translate(212, 28)" class="key keypos-2">
<rect rx="6" ry="6" x="-28" y="-26" width="55" height="52" class="key"/>
<text x="0" y="0" class="key tap">8</text>
</g>
<g transform="translate(271, 56)" class="key keypos-3">
<rect rx="6" ry="6" x="-28" y="-26" width="55" height="52" class="key"/>
<text x="0" y="0" class="key tap">9</text>
</g>
<g transform="translate(330, 65)" class="key trans keypos-4">
<rect rx="6" ry="6" x="-28" y="-26" width="55" height="52" class="key trans"/>
</g>
<g transform="translate(520, 65)" class="key trans keypos-5">
<rect rx="6" ry="6" x="-28" y="-26" width="55" height="52" class="key trans"/>
</g>
<g transform="translate(580, 56)" class="key trans keypos-6">
<rect rx="6" ry="6" x="-28" y="-26" width="55" height="52" class="key trans"/>
</g>
<g transform="translate(639, 28)" class="key trans keypos-7">
<rect rx="6" ry="6" x="-28" y="-26" width="55" height="52" class="key trans"/>
</g>
<g transform="translate(706, 62) rotate(4.0)" class="key trans keypos-8">
<rect rx="6" ry="6" x="-28" y="-26" width="55" height="52" class="key trans"/>
</g>
<g transform="translate(773, 113) rotate(10.0)" class="key trans keypos-9">
<rect rx="6" ry="6" x="-28" y="-26" width="55" height="52" class="key trans"/>
</g>
<g transform="translate(87, 168) rotate(-10.0)" class="key keypos-10">
<rect rx="6" ry="6" x="-28" y="-26" width="55" height="52" class="key"/>
<text x="0" y="0" class="key tap">0</text>
<use href="#mdi:apple-keyboard-option" xlink:href="#mdi:apple-keyboard-option" x="-6" y="12" height="12" width="12.0" class="key hold glyph mdi:apple-keyboard-option"/>
</g>
<g transform="translate(148, 118) rotate(-4.0)" class="key keypos-11">
<rect rx="6" ry="6" x="-28" y="-26" width="55" height="52" class="key"/>
<text x="0" y="0" class="key tap">4</text>
<use href="#mdi:apple-keyboard-control" xlink:href="#mdi:apple-keyboard-control" x="-6" y="12" height="12" width="12.0" class="key hold glyph mdi:apple-keyboard-control"/>
</g>
<g transform="translate(212, 84)" class="key keypos-12">
<rect rx="6" ry="6" x="-28" y="-26" width="55" height="52" class="key"/>
<text x="0" y="0" class="key tap">5</text>
<use href="#mdi:apple-keyboard-command" xlink:href="#mdi:apple-keyboard-command" x="-6" y="12" height="12" width="12.0" class="key hold glyph mdi:apple-keyboard-command"/>
</g>
<g transform="translate(271, 112)" class="key keypos-13">
<rect rx="6" ry="6" x="-28" y="-26" width="55" height="52" class="key"/>
<text x="0" y="0" class="key tap">6</text>
<use href="#mdi:apple-keyboard-shift" xlink:href="#mdi:apple-keyboard-shift" x="-6" y="12" height="12" width="12.0" class="key hold glyph mdi:apple-keyboard-shift"/>
</g>
<g transform="translate(330, 121)" class="key trans keypos-14">
<rect rx="6" ry="6" x="-28" y="-26" width="55" height="52" class="key trans"/>
</g>
<g transform="translate(520, 121)" class="key trans keypos-15">
<rect rx="6" ry="6" x="-28" y="-26" width="55" height="52" class="key trans"/>
</g>
<g transform="translate(580, 112)" class="key trans keypos-16">
<rect rx="6" ry="6" x="-28" y="-26" width="55" height="52" class="key trans"/>
</g>
<g transform="translate(639, 84)" class="key trans keypos-17">
<rect rx="6" ry="6" x="-28" y="-26" width="55" height="52" class="key trans"/>
</g>
<g transform="translate(703, 118) rotate(4.0)" class="key trans keypos-18">
<rect rx="6" ry="6" x="-28" y="-26" width="55" height="52" class="key trans"/>
</g>
<g transform="translate(764, 168) rotate(10.0)" class="key trans keypos-19">
<rect rx="6" ry="6" x="-28" y="-26" width="55" height="52" class="key trans"/>
</g>
<g transform="translate(34, 209) rotate(-10.0)" class="key keypos-20">
<rect rx="6" ry="6" x="-28" y="-26" width="55" height="52" class="key"/>
</g>
<g transform="translate(97, 223) rotate(-10.0)" class="key trans keypos-21">
<rect rx="6" ry="6" x="-28" y="-26" width="55" height="52" class="key trans"/>
</g>
<g transform="translate(152, 174) rotate(-4.0)" class="key keypos-22">
<rect rx="6" ry="6" x="-28" y="-26" width="55" height="52" class="key"/>
<text x="0" y="0" class="key tap">1</text>
</g>
<g transform="translate(212, 140)" class="key keypos-23">
<rect rx="6" ry="6" x="-28" y="-26" width="55" height="52" class="key"/>
<text x="0" y="0" class="key tap">2</text>
</g>
<g transform="translate(271, 168)" class="key keypos-24">
<rect rx="6" ry="6" x="-28" y="-26" width="55" height="52" class="key"/>
<text x="0" y="0" class="key tap">3</text>
</g>
<g transform="translate(330, 177)" class="key trans keypos-25">
<rect rx="6" ry="6" x="-28" y="-26" width="55" height="52" class="key trans"/>
</g>
<g transform="translate(520, 177)" class="key trans keypos-26">
<rect rx="6" ry="6" x="-28" y="-26" width="55" height="52" class="key trans"/>
</g>
<g transform="translate(580, 168)" class="key trans keypos-27">
<rect rx="6" ry="6" x="-28" y="-26" width="55" height="52" class="key trans"/>
</g>
<g transform="translate(639, 140)" class="key trans keypos-28">
<rect rx="6" ry="6" x="-28" y="-26" width="55" height="52" class="key trans"/>
</g>
<g transform="translate(699, 174) rotate(4.0)" class="key trans keypos-29">
<rect rx="6" ry="6" x="-28" y="-26" width="55" height="52" class="key trans"/>
</g>
<g transform="translate(754, 223) rotate(10.0)" class="key trans keypos-30">
<rect rx="6" ry="6" x="-28" y="-26" width="55" height="52" class="key trans"/>
</g>
<g transform="translate(817, 209) rotate(10.0)" class="key keypos-31">
<rect rx="6" ry="6" x="-28" y="-26" width="55" height="52" class="key"/>
</g>
<g transform="translate(255, 236)" class="key keypos-32">
<rect rx="6" ry="6" x="-28" y="-26" width="55" height="52" class="key"/>
</g>
<g transform="translate(320, 245) rotate(15.0)" class="key trans keypos-33">
<rect rx="6" ry="6" x="-28" y="-26" width="55" height="52" class="key trans"/>
</g>
<g transform="translate(381, 270) rotate(30.0)" class="key trans keypos-34">
<rect rx="6" ry="6" x="-28" y="-26" width="55" height="52" class="key trans"/>
</g>
<g transform="translate(470, 270) rotate(-30.0)" class="key held keypos-35">
<rect rx="6" ry="6" x="-28" y="-26" width="55" height="52" class="key held"/>
</g>
<g transform="translate(531, 245) rotate(-15.0)" class="key trans keypos-36">
<rect rx="6" ry="6" x="-28" y="-26" width="55" height="52" class="key trans"/>
</g>
<g transform="translate(596, 236)" class="key keypos-37">
<rect rx="6" ry="6" x="-28" y="-26" width="55" height="52" class="key"/>
</g>
</g>
</g>
</svg>
