<svg width="911" height="422" viewBox="0 0 911 422" class="keymap" xmlns="http://www.w3.org/2000/svg" xmlns:xlink="http://www.w3.org/1999/xlink">
<style>/* force mdi glyph defs to inherit color from glyph references */
svg path {
    fill: inherit;
}

defs svg {
    overflow: visible;
}

defs svg path {
    fill: currentColor;
}

svg.keymap {
    font-family: REM, "SFMono-Regular", Consolas, "Liberation Mono", Menlo, monospace;
    font-size: 14px;
    font-kerning: normal;
    text-rendering: optimizeLegibility;
    fill: rgb(38, 50, 56);
}

rect.key {
    fill: rgb(236, 239, 241);
}

rect.key, rect.combo {
    stroke: white;
    stroke-width: 1;
}

.keypos-32 rect.key,
.keypos-33 rect.key,
.keypos-34 rect.key,
.keypos-35 rect.key,
.keypos-36 rect.key,
.keypos-37 rect.key {
    fill: rgb(207, 216, 220);
    stroke: rgb(176, 190, 197);
}

rect.side {
    filter: brightness(90%);
}

rect.combo, rect.combo-separate {
    fill: rgb(207, 216, 220);
}

rect.held, rect.combo.held {
    fill: rgb(229, 115, 115);
}

rect.ghost, rect.combo.ghost {
    stroke-dasharray: 4, 4;
    stroke-width: 2;
}

text {
    text-anchor: middle;
    dominant-baseline: middle;
}

text.label {
    font-weight: bold;
    text-anchor: start;
    fill: rgb(120, 144, 156);
    stroke: white;
    stroke-width: 4;
    paint-order: stroke;
}

text.footer {
    text-anchor: end;
    dominant-baseline: auto;
    stroke: white;
    stroke-width: 4;
    paint-order: stroke;
}

text.combo, text.hold, text.shifted, text.left, text.right, text.tl, text.tr, text.bl, text.br {
    font-size: 11px;
}

text.hold, text.shifted, text.left, text.right, text.tl, text.tr, text.bl, text.br {
    fill: rgb(96, 125, 139);
}

text.hold, text.bl, text.br {
    text-anchor: middle;
    dominant-baseline: auto;
}

text.shifted, text.tl, text.tr {
    text-anchor: middle;
    dominant-baseline: hanging;
}

text.left, text.tl, text.bl {
    text-anchor: start;
}

text.right, text.tr, text.br {
    text-anchor: end;
}

text.layer-activator {
    text-decoration: underline;
    fill: rgb(38, 50, 56);
}

text.combo.hold, text.combo.shifted, text.combo.left, text.combo.right {
    font-size: 8px;
}

text.combo.tap {
    fill: rgb(55, 71, 79);
}

use.glyph {
    fill: rgb(38, 50, 56);
    color: rgb(38, 50, 56);
}

use.left.glyph,
use.right.glyph,
use.tl.glyph,
use.bl.glyph,
use.br.glyph {
    fill: rgb(96, 125, 139);
    color: rgb(96, 125, 139);
}

use.combo.glyph {
    fill: rgb(55, 71, 79);
    color: rgb(55, 71, 79);
}

text.combo.hold, text.combo.left, text.combo.right {
    fill: rgb(55, 71, 79);
}

text.combo.shifted {
    fill: rgb(120, 144, 156);
}

text.trans {
    fill: rgb(120, 144, 156);
    opacity: 0.4;
}

path.combo {
    stroke-width: 1;
    stroke: rgb(207, 216, 220);
    fill: none;
}

.icon-tabler > path {
    fill: inherit;
    stroke: inherit;
    stroke-width: 2;
}

.icon-tabler > path[stroke="none"][fill="none"] {
    visibility: hidden;
}

svg.keymap { fill: rgb(38, 50, 56); }
rect.key { fill: rgb(236, 239, 241); }
rect.key, rect.combo { stroke: white; }
rect.combo, rect.combo-separate { fill: rgb(207, 216, 220); stroke: rgb(207, 216, 220); }
rect.held, rect.combo.held { fill: rgb(229, 115, 115); }
text.label, text.footer { stroke: white; }
text.trans { fill: rgb(120, 144, 156); opacity: 0.4; }
path.combo { stroke: rgb(207, 216, 220); }
</style>
<g transform="translate(30, 0)" class="layer-Sys">
<g transform="translate(0, 56)">
<g transform="translate(78, 113) rotate(-10.0)" class="key trans keypos-0">
<rect rx="6" ry="6" x="-28" y="-26" width="55" height="52" class="key trans"/>
</g>
<g transform="translate(144, 62) rotate(-4.0)" class="key trans keypos-1">
<rect rx="6" ry="6" x="-28" y="-26" width="55" height="52" class="key trans"/>
</g>
<g transform="translate(212, 28)" class="key trans keypos-2">
<rect rx="6" ry="6" x="-28" y="-26" width="55" height="52" class="key trans"/>
</g>
<g transform="translate(271, 56)" class="key trans keypos-3">
<rect rx="6" ry="6" x="-28" y="-26" width="55" height="52" class="key trans"/>
</g>
<g transform="translate(330, 65)" class="key keypos-4">
<rect rx="6" ry="6" x="-28" y="-26" width="55" height="52" class="key"/>
<text x="0" y="0" class="key tap">Unlock</text>
</g>
<g transform="translate(520, 65)" class="key keypos-5">
<rect rx="6" ry="6" x="-28" y="-26" width="55" height="52" class="key"/>
<text x="0" y="0" class="key tap">Unlock</text>
</g>
<g transform="translate(580, 56)" class="key trans keypos-6">
<rect rx="6" ry="6" x="-28" y="-26" width="55" height="52" class="key trans"/>
</g>
<g transform="translate(639, 28)" class="key trans keypos-7">
<rect rx="6" ry="6" x="-28" y="-26" width="55" height="52" class="key trans"/>
</g>
<g transform="translate(706, 62) rotate(4.0)" class="key trans keypos-8">
<rect rx="6" ry="6" x="-28" y="-26" width="55" height="52" class="key trans"/>
</g>
<g transform="translate(773, 113) rotate(10.0)" class="key trans keypos-9">
<rect rx="6" ry="6" x="-28" y="-26" width="55" height="52" class="key trans"/>
</g>
<g transform="translate(87, 168) rotate(-10.0)" class="key trans keypos-10">
<rect rx="6" ry="6" x="-28" y="-26" width="55" height="52" class="key trans"/>
</g>
<g transform="translate(148, 118) rotate(-4.0)" class="key trans keypos-11">
<rect rx="6" ry="6" x="-28" y="-26" width="55" height="52" class="key trans"/>
</g>
<g transform="translate(212, 84)" class="key trans keypos-12">
<rect rx="6" ry="6" x="-28" y="-26" width="55" height="52" class="key trans"/>
</g>
<g transform="translate(271, 112)" class="key trans keypos-13">
<rect rx="6" ry="6" x="-28" y="-26" width="55" height="52" class="key trans"/>
</g>
<g transform="translate(330, 121)" class="key keypos-14">
<rect rx="6" ry="6" x="-28" y="-26" width="55" height="52" class="key"/>
<text x="0" y="0" class="key tap">Boot</text>
</g>
<g transform="translate(520, 121)" class="key keypos-15">
<rect rx="6" ry="6" x="-28" y="-26" width="55" height="52" class="key"/>
<text x="0" y="0" class="key tap">Boot</text>
</g>
<g transform="translate(580, 112)" class="key trans keypos-16">
<rect rx="6" ry="6" x="-28" y="-26" width="55" height="52" class="key trans"/>
</g>
<g transform="translate(639, 84)" class="key trans keypos-17">
<rect rx="6" ry="6" x="-28" y="-26" width="55" height="52" class="key trans"/>
</g>
<g transform="translate(703, 118) rotate(4.0)" class="key trans keypos-18">
<rect rx="6" ry="6" x="-28" y="-26" width="55" height="52" class="key trans"/>
</g>
<g transform="translate(764, 168) rotate(10.0)" class="key trans keypos-19">
<rect rx="6" ry="6" x="-28" y="-26" width="55" height="52" class="key trans"/>
</g>
<g transform="translate(34, 209) rotate(-10.0)" class="key keypos-20">
<rect rx="6" ry="6" x="-28" y="-26" width="55" height="52" class="key"/>
</g>
<g transform="translate(97, 223) rotate(-10.0)" class="key trans keypos-21">
<rect rx="6" ry="6" x="-28" y="-26" width="55" height="52" class="key trans"/>
</g>
<g transform="translate(152, 174) rotate(-4.0)" class="key trans keypos-22">
<rect rx="6" ry="6" x="-28" y="-26" width="55" height="52" class="key trans"/>
</g>
<g transform="translate(212, 140)" class="key trans keypos-23">
<rect rx="6" ry="6" x="-28" y="-26" width="55" height="52" class="key trans"/>
</g>
<g transform="translate(271, 168)" class="key trans keypos-24">
<rect rx="6" ry="6" x="-28" y="-26" width="55" height="52" class="key trans"/>
</g>
<g transform="translate(330, 177)" class="key keypos-25">
<rect rx="6" ry="6" x="-28" y="-26" width="55" height="52" class="key"/>
<text x="0" y="0" class="key tap">Reset</text>
</g>
<g transform="translate(520, 177)" class="key keypos-26">
<rect rx="6" ry="6" x="-28" y="-26" width="55" height="52" class="key"/>
<text x="0" y="0" class="key tap">Reset</text>
</g>
<g transform="translate(580, 168)" class="key trans keypos-27">
<rect rx="6" ry="6" x="-28" y="-26" width="55" height="52" class="key trans"/>
</g>
<g transform="translate(639, 140)" class="key trans keypos-28">
<rect rx="6" ry="6" x="-28" y="-26" width="55" height="52" class="key trans"/>
</g>
<g transform="translate(699, 174) rotate(4.0)" class="key trans keypos-29">
<rect rx="6" ry="6" x="-28" y="-26" width="55" height="52" class="key trans"/>
</g>
<g transform="translate(754, 223) rotate(10.0)" class="key trans keypos-30">
<rect rx="6" ry="6" x="-28" y="-26" width="55" height="52" class="key trans"/>
</g>
<g transform="translate(817, 209) rotate(10.0)" class="key keypos-31">
<rect rx="6" ry="6" x="-28" y="-26" width="55" height="52" class="key"/>
</g>
<g transform="translate(255, 236)" class="key keypos-32">
<rect rx="6" ry="6" x="-28" y="-26" width="55" height="52" class="key"/>
</g>
<g transform="translate(320, 245) rotate(15.0)" class="key trans keypos-33">
<rect rx="6" ry="6" x="-28" y="-26" width="55" height="52" class="key trans"/>
</g>
<g transform="translate(381, 270) rotate(30.0)" class="key held keypos-34">
<rect rx="6" ry="6" x="-28" y="-26" width="55" height="52" class="key held"/>
</g>
<g transform="translate(470, 270) rotate(-30.0)" class="key held keypos-35">
<rect rx="6" ry="6" x="-28" y="-26" width="55" height="52" class="key held"/>
</g>
<g transform="translate(531, 245) rotate(-15.0)" class="key trans keypos-36">
<rect rx="6" ry="6" x="-28" y="-26" width="55" height="52" class="key trans"/>
</g>
<g transform="translate(596, 236)" class="key keypos-37">
<rect rx="6" ry="6" x="-28" y="-26" width="55" height="52" class="key"/>
</g>
</g>
</g>
</svg>
